<svg width="22" height="22" viewBox="0 0 22 22" fill="none" xmlns="http://www.w3.org/2000/svg">
<circle cx="7.33333" cy="7.3335" r="2.25" stroke="#222222" stroke-linecap="round"/>
<path d="M10.8234 7.81234C11.061 7.40082 11.4523 7.10054 11.9113 6.97755C12.3703 6.85457 12.8593 6.91895 13.2708 7.15654C13.6824 7.39413 13.9826 7.78546 14.1056 8.24445C14.2286 8.70344 14.1642 9.19249 13.9266 9.604C13.689 10.0155 13.2977 10.3158 12.8387 10.4388C12.3797 10.5618 11.8907 10.4974 11.4792 10.2598C11.0677 10.0222 10.7674 9.63088 10.6444 9.17189C10.5214 8.7129 10.5858 8.22385 10.8234 7.81234L10.8234 7.81234Z" stroke="#2A4157" stroke-opacity="0.24"/>
<path d="M11.4584 16.9583V16.4583H3.20835V16.9583V17.4583H11.4584V16.9583ZM2.37841 16.0481L2.87217 16.1268C2.99066 15.3838 3.27523 14.3312 3.94153 13.474C4.58963 12.6402 5.62205 11.9583 7.33335 11.9583V11.4583V10.9583C5.30443 10.9583 3.984 11.7899 3.15199 12.8603C2.33818 13.9073 2.01539 15.1496 1.88465 15.9693L2.37841 16.0481ZM7.33335 11.4583V11.9583C9.04466 11.9583 10.0771 12.6402 10.7252 13.474C11.3915 14.3312 11.676 15.3838 11.7945 16.1268L12.2883 16.0481L12.7821 15.9693C12.6513 15.1496 12.3285 13.9073 11.5147 12.8603C10.6827 11.7899 9.36227 10.9583 7.33335 10.9583V11.4583ZM3.20835 16.9583V16.4583C3.09073 16.4583 2.99662 16.411 2.93905 16.3494C2.88466 16.2912 2.85784 16.2167 2.87217 16.1268L2.37841 16.0481L1.88465 15.9693C1.74935 16.8177 2.44156 17.4583 3.20835 17.4583V16.9583ZM11.4584 16.9583V17.4583C12.2251 17.4583 12.9174 16.8177 12.7821 15.9693L12.2883 16.0481L11.7945 16.1268C11.8089 16.2167 11.7821 16.2912 11.7277 16.3494C11.6701 16.411 11.576 16.4583 11.4584 16.4583V16.9583Z" fill="#222222"/>
<path d="M11.4593 16.9583L11.4588 16.4583L11.4593 17.4583V16.9583ZM15.8552 15.9649L15.3702 16.0864L15.3702 16.0864L15.8552 15.9649ZM10.817 12.8157L10.5491 12.3935L10.0339 12.7205L10.4557 13.1613L10.817 12.8157ZM12.2883 16.0481L11.7945 16.1268L12.2883 16.0481ZM15.0288 16.9583V16.4583H11.4593V16.9583V17.4583H15.0288V16.9583ZM15.8552 15.9649L15.3702 16.0864C15.3948 16.1848 15.3701 16.2689 15.3139 16.335C15.2546 16.4047 15.1549 16.4583 15.0288 16.4583V16.9583V17.4583C15.8502 17.4583 16.5619 16.7285 16.3402 15.8434L15.8552 15.9649ZM12.375 12.375V12.875C13.3008 12.875 13.9511 13.3267 14.4302 13.9647C14.9198 14.6168 15.2084 15.4405 15.3702 16.0864L15.8552 15.9649L16.3402 15.8434C16.1644 15.1414 15.835 14.1702 15.2299 13.3643C14.6142 12.5443 13.6932 11.875 12.375 11.875V12.375ZM10.817 12.8157L11.0849 13.2379C11.4357 13.0152 11.8571 12.875 12.375 12.875V12.375V11.875C11.6629 11.875 11.0564 12.0716 10.5491 12.3935L10.817 12.8157ZM10.817 12.8157L10.4557 13.1613C11.3154 14.0601 11.6604 15.2857 11.7945 16.1268L12.2883 16.0481L12.782 15.9693C12.6354 15.0496 12.2448 13.585 11.1783 12.4701L10.817 12.8157ZM12.2883 16.0481L11.7945 16.1268C11.8088 16.2166 11.7821 16.2911 11.7277 16.3493C11.6703 16.4109 11.5763 16.4582 11.4588 16.4583L11.4593 16.9583L11.4598 17.4583C12.226 17.4576 12.9172 16.8171 12.782 15.9693L12.2883 16.0481Z" fill="#2A4157" fill-opacity="0.24"/>
<rect x="14.8958" y="4.81266" width="4.125" height="0.458333" rx="0.229167" stroke="#222222" stroke-width="0.458333" stroke-linecap="round"/>
<rect x="17.1875" y="2.97917" width="4.125" height="0.458333" rx="0.229167" transform="rotate(90 17.1875 2.97917)" stroke="#222222" stroke-width="0.458333" stroke-linecap="round"/>
</svg>
