<svg width="30" height="30" viewBox="0 0 30 30" fill="none" xmlns="http://www.w3.org/2000/svg">
<path fill-rule="evenodd" clip-rule="evenodd" d="M6.41876 2.32787C6.9513 1.79533 6.9513 0.93193 6.41876 0.399399C5.88623 -0.133133 5.02283 -0.133133 4.4903 0.399399L0.399399 4.4903C-0.133133 5.02283 -0.133133 5.88623 0.399399 6.41876C0.93193 6.9513 1.79533 6.9513 2.32787 6.41876L6.41876 2.32787ZM25.5096 0.399399C24.9771 -0.133133 24.1137 -0.133133 23.5812 0.399399C23.0486 0.93193 23.0486 1.79533 23.5812 2.32787L27.6721 6.41876C28.2046 6.9513 29.068 6.9513 29.6005 6.41876C30.133 5.88623 30.133 5.02283 29.6005 4.4903L25.5096 0.399399ZM15 5.45461C8.97509 5.45461 4.09094 10.3388 4.09094 16.3637C4.09094 22.3886 8.97509 27.2727 15 27.2727C21.0249 27.2727 25.9091 22.3886 25.9091 16.3637C25.9091 10.3388 21.0249 5.45461 15 5.45461ZM1.36367 16.3637C1.36367 8.83254 7.46887 2.72735 15 2.72735C22.5311 2.72735 28.6363 8.83254 28.6363 16.3637C28.6363 23.8948 22.5311 30 15 30C7.46887 30 1.36367 23.8948 1.36367 16.3637ZM14.9999 8.18182C15.753 8.18182 16.3635 8.79233 16.3635 9.54545V15.6341L19.8471 17.9562C20.4738 18.3739 20.6432 19.2205 20.2255 19.8472C19.8078 20.4738 18.9612 20.6433 18.3345 20.2256L14.8504 17.9033C14.477 17.6542 14.1704 17.3164 13.9587 16.9205C13.747 16.5248 13.6363 16.0829 13.6363 15.6341V9.54545C13.6363 8.79233 14.2468 8.18182 14.9999 8.18182Z" fill="#222227"/>
</svg>
