<svg width="30" height="21" viewBox="0 0 30 21" fill="none" xmlns="http://www.w3.org/2000/svg">
<path fill-rule="evenodd" clip-rule="evenodd" d="M1.31802 1.31802C2.16193 0.474106 3.30653 0 4.5 0H22.5C23.6935 0 24.8381 0.474106 25.682 1.31802C26.5259 2.16193 27 3.30653 27 4.5V4.75736C27.6269 4.979 28.2029 5.33891 28.682 5.81802C29.5259 6.66193 30 7.80652 30 9V12C30 13.1935 29.5259 14.3381 28.682 15.182C28.2029 15.6611 27.6269 16.021 27 16.2426V16.5C27 17.6935 26.5259 18.8381 25.682 19.682C24.8381 20.5259 23.6935 21 22.5 21H4.5C3.30653 21 2.16193 20.5259 1.31802 19.682C0.474106 18.8381 0 17.6935 0 16.5V4.5C0 3.30653 0.474106 2.16193 1.31802 1.31802ZM4.5 3C4.10217 3 3.72064 3.15804 3.43934 3.43934C3.15804 3.72064 3 4.10217 3 4.5V16.5C3 16.8978 3.15804 17.2794 3.43934 17.5607C3.72064 17.842 4.10218 18 4.5 18H22.5C22.8978 18 23.2794 17.842 23.5607 17.5607C23.842 17.2794 24 16.8978 24 16.5V15C24 14.1716 24.6716 13.5 25.5 13.5C25.8978 13.5 26.2794 13.342 26.5607 13.0607C26.842 12.7794 27 12.3978 27 12V9C27 8.60218 26.842 8.22065 26.5607 7.93934C26.2794 7.65804 25.8978 7.5 25.5 7.5C24.6716 7.5 24 6.82843 24 6V4.5C24 4.10218 23.842 3.72064 23.5607 3.43934C23.2794 3.15804 22.8978 3 22.5 3H4.5ZM7.5 6C8.32843 6 9 6.67157 9 7.5V13.5C9 14.3284 8.32843 15 7.5 15C6.67157 15 6 14.3284 6 13.5V7.5C6 6.67157 6.67157 6 7.5 6ZM13.5 6C14.3284 6 15 6.67157 15 7.5V13.5C15 14.3284 14.3284 15 13.5 15C12.6716 15 12 14.3284 12 13.5V7.5C12 6.67157 12.6716 6 13.5 6ZM19.5 6C20.3284 6 21 6.67157 21 7.5V13.5C21 14.3284 20.3284 15 19.5 15C18.6716 15 18 14.3284 18 13.5V7.5C18 6.67157 18.6716 6 19.5 6Z" fill="#222227"/>
</svg>
