<svg width="20" height="28" viewBox="0 0 20 28" fill="none" xmlns="http://www.w3.org/2000/svg">
<path fill-rule="evenodd" clip-rule="evenodd" d="M9.39804 0.138882C9.85409 -0.0839424 10.3998 -0.0358555 10.8077 0.263095L19.4615 6.60537C19.8057 6.85758 20.0057 7.25531 19.9999 7.67561C19.994 8.09592 19.783 8.48818 19.4319 8.73115L11.8199 14L19.4319 19.2688C19.783 19.5118 19.994 19.9041 19.9999 20.3244C20.0057 20.7447 19.8057 21.1424 19.4615 21.3946L10.8077 27.7369C10.3998 28.0359 9.85409 28.0839 9.39804 27.8611C8.94199 27.6383 8.65391 27.1828 8.65391 26.6846V16.1914L2.12435 20.711C1.51767 21.1309 0.677498 20.9908 0.247767 20.3979C-0.181963 19.8051 -0.0385189 18.9841 0.56816 18.5642L7.1621 14L0.56816 9.43585C-0.0385189 9.01592 -0.181963 8.19491 0.247767 7.60207C0.677498 7.00924 1.51767 6.86906 2.12435 7.28899L8.65391 11.8086V1.31544C8.65391 0.817193 8.94199 0.361706 9.39804 0.138882ZM11.3462 16.8961L16.3688 20.3727L11.3462 24.0537V16.8961ZM11.3462 11.1039V3.94631L16.3688 7.62735L11.3462 11.1039Z" fill="#222227"/>
</svg>
