<svg width="150" height="140" viewBox="0 0 150 140" fill="none" xmlns="http://www.w3.org/2000/svg">
<path d="M132.852 66.3792C132.852 66.3792 105.697 35 71.3007 35C36.9041 35 2.50757 72.4137 2.50757 74.8276C2.50757 77.2415 37.5076 111.034 71.3007 111.034C105.094 111.034 139.49 74.8276 139.49 74.8276" stroke="white" stroke-width="5" stroke-linecap="round"/>
<path d="M141.3 38.6207C144.624 38.6207 149.748 41.7895 149.748 47.931C148.261 55.6413 143.519 60.3319 141.871 61.7619C141.538 62.0507 141.063 62.0507 140.73 61.7619C139.082 60.3319 134.339 55.6413 132.852 47.931C132.853 41.7898 137.976 38.6209 141.3 38.6207ZM141.3 44.6467C140.093 44.6469 137.679 45.868 137.679 49.2005C137.68 52.5327 140.093 54.3015 141.3 54.3018C142.507 54.3018 144.921 52.533 144.921 49.2005C144.921 45.8677 142.507 44.6467 141.3 44.6467Z" fill="white"/>
<ellipse cx="141.301" cy="66.9833" rx="2.41379" ry="2.41379" fill="white"/>
<ellipse cx="71.3007" cy="73.6207" rx="26.5517" ry="26.5517" fill="#1F3484"/>
</svg>
