<svg width="150" height="140" viewBox="0 0 150 140" fill="none" xmlns="http://www.w3.org/2000/svg">
<circle cx="71.3007" cy="70" r="70" fill="#DEE3F7"/>
<circle cx="71.3007" cy="73.6208" r="51.8966" fill="url(#paint0_radial_293_409)" fill-opacity="0.6"/>
<path d="M132.852 66.3792C132.852 66.3792 105.697 35 71.3007 35C36.9041 35 2.50757 72.4137 2.50757 74.8276C2.50757 77.2415 37.5076 111.035 71.3007 111.035C105.094 111.035 139.49 74.8276 139.49 74.8276" stroke="#627BDA" stroke-width="5" stroke-linecap="round"/>
<path d="M141.3 38.6208C144.624 38.6208 149.748 41.7896 149.748 47.9311C148.261 55.6415 143.519 60.332 141.871 61.762C141.538 62.0509 141.063 62.0508 140.73 61.762C139.082 60.332 134.339 55.6415 132.852 47.9311C132.853 41.7899 137.976 38.6211 141.3 38.6208ZM141.3 44.6468C140.093 44.647 137.68 45.8681 137.68 49.2006C137.68 52.5328 140.093 54.3016 141.3 54.302C142.507 54.302 144.921 52.5331 144.921 49.2006C144.921 45.8679 142.507 44.6468 141.3 44.6468Z" fill="#627BDA"/>
<ellipse cx="141.301" cy="66.9836" rx="2.41379" ry="2.41379" fill="#627BDA"/>
<ellipse cx="71.3007" cy="73.6207" rx="26.5517" ry="26.5517" fill="#1F3484"/>
<defs>
<radialGradient id="paint0_radial_293_409" cx="0" cy="0" r="1" gradientUnits="userSpaceOnUse" gradientTransform="translate(71.3595 73.6866) rotate(90) scale(51.8966)">
<stop offset="0.757122" stop-color="#B5C0EE"/>
<stop offset="1" stop-color="#676E88"/>
</radialGradient>
</defs>
</svg>
