<svg width="22" height="22" viewBox="0 0 22 22" fill="none" xmlns="http://www.w3.org/2000/svg">
<path d="M11.5794 1.8335V1.3335V1.8335ZM12.3402 1.89795L12.524 1.43296L12.5238 1.43289L12.3402 1.89795ZM12.8187 2.33057L13.2633 2.10183L13.2631 2.10151L12.8187 2.33057ZM12.9574 3.08154L13.4549 3.03192L12.9574 3.08154ZM13.2279 4.4165L12.8302 4.71958L12.8303 4.71969L13.2279 4.4165ZM14.0784 4.76904L14.1448 5.26461L14.145 5.26459L14.0784 4.76904ZM15.2142 4.01611L14.8977 3.62903L15.2142 4.01611ZM15.846 3.5835L15.6944 3.10704L15.6942 3.10711L15.846 3.5835ZM16.4886 3.61572L16.6875 3.15701L16.6873 3.15691L16.4886 3.61572ZM17.0726 4.10889L17.4264 3.75554L17.4262 3.7554L17.0726 4.10889ZM17.8909 4.92822L17.5372 5.28157L17.5373 5.28171L17.8909 4.92822ZM18.3841 5.51221L18.843 5.31359L18.8429 5.31335L18.3841 5.51221ZM18.4163 6.15576L18.8926 6.30814L18.8926 6.30812L18.4163 6.15576ZM17.9837 6.78564L17.5968 6.46897L17.9837 6.78564ZM17.2308 7.91943L16.7353 7.85247L16.7353 7.85258L17.2308 7.91943ZM17.5833 8.771L17.28 9.16851L17.2802 9.1686L17.5833 8.771ZM18.9183 9.0415L18.9682 8.544L18.9183 9.0415ZM19.6702 9.18115L19.8996 8.73686L19.8996 8.73685L19.6702 9.18115ZM20.1019 9.65869L20.5669 9.47482L20.5668 9.47474L20.1019 9.65869ZM20.1663 10.4204H20.6663H20.1663ZM20.1663 11.5796H20.6663H20.1663ZM20.1019 12.3403L20.5669 12.524L20.5669 12.524L20.1019 12.3403ZM19.6693 12.8188L19.8981 13.2634L19.8982 13.2634L19.6693 12.8188ZM18.9183 12.9575L18.8687 12.46L18.9183 12.9575ZM17.5843 13.228L17.2814 12.8302L17.2812 12.8304L17.5843 13.228ZM17.2318 14.0796L16.7363 14.1466L16.7363 14.1466L17.2318 14.0796ZM17.9847 15.2144L18.3717 14.8977L17.9847 15.2144ZM18.4173 15.8442L18.8936 15.692L18.8936 15.6919L18.4173 15.8442ZM18.3851 16.4878L18.8439 16.6866L18.8439 16.6865L18.3851 16.4878ZM17.8919 17.0718L18.2455 17.4253L17.8919 17.0718ZM17.0726 17.8911L17.4261 18.2447L17.0726 17.8911ZM16.4886 18.3843L16.6873 18.8431L16.6873 18.8431L16.4886 18.3843ZM15.8451 18.4165L15.6927 18.8927L15.693 18.8928L15.8451 18.4165ZM15.2152 17.9839L14.8985 18.3709L15.2152 17.9839ZM14.0794 17.23L14.1461 16.7344L14.146 16.7344L14.0794 17.23ZM13.2288 17.5825L12.8315 17.2791L12.8314 17.2792L13.2288 17.5825ZM12.9583 18.9185L13.4559 18.9682L12.9583 18.9185ZM12.8187 19.6704L13.263 19.8997L13.263 19.8997L12.8187 19.6704ZM12.3411 20.1021L12.5251 20.567L12.5252 20.5669L12.3411 20.1021ZM10.4202 20.1665V20.6665V20.1665ZM9.65853 20.1021L9.47458 20.567L9.47466 20.567L9.65853 20.1021ZM9.18099 19.6704L8.73669 19.8997L8.73669 19.8998L9.18099 19.6704ZM9.04134 18.9185L8.54383 18.9683L9.04134 18.9185ZM8.77083 17.5835L9.16846 17.2804L9.16835 17.2802L8.77083 17.5835ZM7.91927 17.231L7.85241 16.7354L7.85225 16.7355L7.91927 17.231ZM6.78548 17.9839L6.46881 17.597L6.78548 17.9839ZM6.1556 18.4165L6.30788 18.8927L6.30798 18.8927L6.1556 18.4165ZM5.51107 18.3843L5.3119 18.8429L5.31212 18.843L5.51107 18.3843ZM4.92806 17.8911L4.57451 18.2447L4.92806 17.8911ZM4.10872 17.0718L4.46228 16.7182L4.10872 17.0718ZM3.61556 16.4878L3.15677 16.6866L3.15678 16.6866L3.61556 16.4878ZM3.58333 15.8442L3.10709 15.692L3.10702 15.6922L3.58333 15.8442ZM4.01595 15.2144L3.62891 14.8978L4.01595 15.2144ZM4.76888 14.0796L5.26436 14.1466L5.2644 14.1464L4.76888 14.0796ZM4.41536 13.228L4.71837 12.8303L4.71831 12.8303L4.41536 13.228ZM3.08138 12.9575L3.03175 13.4551L3.08138 12.9575ZM2.3304 12.8188L2.10142 13.2633L2.10163 13.2634L2.3304 12.8188ZM1.89779 12.3403L1.43274 12.524L1.43277 12.5241L1.89779 12.3403ZM1.83333 11.5796H1.33333H1.83333ZM1.83333 10.4204H1.33333H1.83333ZM1.89779 9.65869L1.43285 9.47474L1.43285 9.47475L1.89779 9.65869ZM2.32943 9.18115L2.10009 8.73685L2.10003 8.73688L2.32943 9.18115ZM3.08138 9.0415L3.0315 8.544L3.08138 9.0415ZM4.41634 8.771L4.71934 9.16873L4.7197 9.16845L4.41634 8.771ZM4.76888 7.91943L5.26442 7.85278L5.26437 7.8524L4.76888 7.91943ZM4.01595 6.78467L3.62896 7.10128L4.01595 6.78467ZM3.58333 6.15479L3.10704 6.30691L3.1071 6.3071L3.58333 6.15479ZM3.61556 5.51123L3.15677 5.31246L3.15674 5.31252L3.61556 5.51123ZM4.10872 4.92725L3.75517 4.57369L4.10872 4.92725ZM5.51204 3.61475L5.31333 3.15593L5.31318 3.156L5.51204 3.61475ZM6.1556 3.58252L6.30786 3.10627L6.30782 3.10626L6.1556 3.58252ZM6.78548 4.01514L7.10209 3.62815L6.78548 4.01514ZM7.92025 4.76807L7.85336 5.26357L7.8536 5.2636L7.92025 4.76807ZM8.77181 4.41553L9.16941 4.7187L9.16948 4.71861L8.77181 4.41553ZM9.04134 3.08154L9.53886 3.13131L9.04134 3.08154ZM9.18099 2.33057L8.73654 2.10151L8.73642 2.10175L9.18099 2.33057ZM9.6595 1.89795L9.47598 1.43285L9.47582 1.43291L9.6595 1.89795ZM11.0003 7.3335L11.0004 6.8335H11.0003V7.3335ZM7.33333 11.0005H6.83333V11.0006L7.33333 11.0005ZM11.0003 14.6665V15.1665H11.0004L11.0003 14.6665ZM14.6663 11.0005L15.1663 11.0006V11.0005H14.6663ZM11.5794 1.8335V2.3335C12.0231 2.3335 12.1046 2.34249 12.1565 2.36301L12.3402 1.89795L12.5238 1.43289C12.2512 1.32526 11.9337 1.3335 11.5794 1.3335V1.8335ZM12.3402 1.89795L12.1564 2.36294C12.2508 2.40026 12.3283 2.47053 12.3742 2.55962L12.8187 2.33057L13.2631 2.10151C13.1057 1.79605 12.8423 1.55881 12.524 1.43296L12.3402 1.89795ZM12.8187 2.33057L12.3741 2.55931C12.3806 2.57194 12.3943 2.60354 12.4099 2.69735C12.4263 2.79609 12.4393 2.92568 12.4598 3.13117L12.9574 3.08154L13.4549 3.03192C13.4358 2.84036 13.4194 2.67203 13.3963 2.53332C13.3724 2.38969 13.3366 2.24431 13.2633 2.10183L12.8187 2.33057ZM12.9574 3.08154L12.4598 3.13117C12.4965 3.49907 12.5268 3.80445 12.5697 4.04243C12.6117 4.2756 12.6772 4.51882 12.8302 4.71958L13.2279 4.4165L13.6255 4.11343C13.6212 4.10777 13.5889 4.05959 13.5538 3.86492C13.5196 3.67506 13.4932 3.41616 13.4549 3.03192L12.9574 3.08154ZM13.2279 4.4165L12.8303 4.71969C13.1389 5.12441 13.6407 5.33216 14.1448 5.26461L14.0784 4.76904L14.0121 4.27347C13.8636 4.29336 13.7161 4.23219 13.6255 4.11331L13.2279 4.4165ZM14.0784 4.76904L14.145 5.26459C14.3956 5.23092 14.614 5.10489 14.8084 4.96979C15.007 4.83188 15.2444 4.63725 15.5307 4.4032L15.2142 4.01611L14.8977 3.62903C14.5984 3.87376 14.3966 4.03831 14.2379 4.14852C14.0752 4.26155 14.0186 4.2726 14.0119 4.2735L14.0784 4.76904ZM15.2142 4.01611L15.5307 4.4032C15.8746 4.12197 15.9444 4.07691 15.9979 4.05988L15.846 3.5835L15.6942 3.10711C15.4145 3.19624 15.1732 3.40375 14.8977 3.62903L15.2142 4.01611ZM15.846 3.5835L15.9977 4.05995C16.0938 4.02936 16.1977 4.03462 16.2899 4.07453L16.4886 3.61572L16.6873 3.15691C16.3731 3.02082 16.0203 3.00334 15.6944 3.10704L15.846 3.5835ZM16.4886 3.61572L16.2897 4.07444C16.3032 4.08033 16.3342 4.09636 16.4057 4.15882C16.4808 4.22455 16.5732 4.31654 16.719 4.46237L17.0726 4.10889L17.4262 3.7554C17.2897 3.61879 17.1702 3.49895 17.064 3.40608C16.954 3.30994 16.8342 3.2206 16.6875 3.15701L16.4886 3.61572ZM17.0726 4.10889L16.7188 4.46223L17.5372 5.28157L17.8909 4.92822L18.2447 4.57488L17.4264 3.75554L17.0726 4.10889ZM17.8909 4.92822L17.5373 5.28171C17.6831 5.42756 17.7752 5.51999 17.841 5.59526C17.9036 5.66685 17.9196 5.69775 17.9254 5.71106L18.3841 5.51221L18.8429 5.31335C18.7792 5.16657 18.6897 5.04663 18.5937 4.93683C18.5008 4.83071 18.381 4.7112 18.2446 4.57474L17.8909 4.92822ZM18.3841 5.51221L17.9253 5.71082C17.9656 5.80394 17.9706 5.90797 17.9401 6.0034L18.4163 6.15576L18.8926 6.30812C18.9972 5.981 18.9789 5.6276 18.843 5.31359L18.3841 5.51221ZM18.4163 6.15576L17.9401 6.00339C17.9357 6.01729 17.9229 6.04963 17.8677 6.12699C17.8097 6.20835 17.7274 6.30941 17.5968 6.46897L17.9837 6.78564L18.3707 7.10232C18.4929 6.95297 18.6002 6.82219 18.6821 6.70738C18.7667 6.58857 18.8438 6.46042 18.8926 6.30814L18.4163 6.15576ZM17.9837 6.78564L17.5968 6.46897C17.363 6.75459 17.1684 6.9916 17.0305 7.18968C16.8954 7.38373 16.7692 7.60194 16.7353 7.85247L17.2308 7.91943L17.7263 7.9864C17.7272 7.97989 17.7381 7.92348 17.8512 7.76102C17.9615 7.60261 18.126 7.40124 18.3707 7.10232L17.9837 6.78564ZM17.2308 7.91943L16.7353 7.85258C16.6672 8.3572 16.8753 8.8597 17.28 9.16851L17.5833 8.771L17.8866 8.37348C17.7675 8.28262 17.7063 8.13465 17.7263 7.98629L17.2308 7.91943ZM17.5833 8.771L17.2802 9.1686C17.481 9.32176 17.7245 9.38706 17.9574 9.42903C18.1953 9.47188 18.5007 9.50214 18.8684 9.53901L18.9183 9.0415L18.9682 8.544C18.5837 8.50546 18.3248 8.47911 18.1347 8.44487C17.9398 8.40976 17.8919 8.37752 17.8865 8.3734L17.5833 8.771ZM18.9183 9.0415L18.8684 9.53901C19.0741 9.55963 19.2039 9.57283 19.3026 9.58937C19.3964 9.60508 19.4281 9.61886 19.4409 9.62546L19.6702 9.18115L19.8996 8.73685C19.7572 8.66333 19.6118 8.62722 19.4678 8.60311C19.3288 8.57982 19.1602 8.56325 18.9682 8.544L18.9183 9.0415ZM19.6702 9.18115L19.4409 9.62545C19.5299 9.67139 19.5997 9.74844 19.637 9.84264L20.1019 9.65869L20.5668 9.47474C20.441 9.15679 20.2045 8.89423 19.8996 8.73686L19.6702 9.18115ZM20.1019 9.65869L19.6369 9.84256C19.6424 9.85634 19.653 9.88957 19.6593 9.98421C19.666 10.0838 19.6663 10.2142 19.6663 10.4204H20.1663H20.6663C20.6663 10.2272 20.6665 10.0579 20.6571 9.91709C20.6473 9.77134 20.6256 9.62345 20.5669 9.47482L20.1019 9.65869ZM20.1663 10.4204H19.6663V11.5796H20.1663H20.6663V10.4204H20.1663ZM20.1663 11.5796H19.6663C19.6663 12.0234 19.6573 12.1048 19.6368 12.1567L20.1019 12.3403L20.5669 12.524C20.6746 12.2514 20.6663 11.9339 20.6663 11.5796H20.1663ZM20.1019 12.3403L19.6369 12.1566C19.5995 12.2512 19.5295 12.3284 19.4404 12.3743L19.6693 12.8188L19.8982 13.2634C20.204 13.1059 20.4411 12.8426 20.5669 12.524L20.1019 12.3403ZM19.6693 12.8188L19.4405 12.3743C19.4279 12.3807 19.3963 12.3944 19.3025 12.41C19.2038 12.4265 19.0742 12.4395 18.8687 12.46L18.9183 12.9575L18.9679 13.4551C19.1595 13.4359 19.3278 13.4196 19.4665 13.3965C19.6102 13.3726 19.7556 13.3368 19.8981 13.2634L19.6693 12.8188ZM18.9183 12.9575L18.8687 12.46C18.5009 12.4967 18.1958 12.527 17.9579 12.5699C17.7248 12.612 17.4819 12.6775 17.2814 12.8302L17.5843 13.228L17.8872 13.6258C17.893 13.6214 17.9413 13.5891 18.1357 13.554C18.3253 13.5197 18.584 13.4933 18.9679 13.4551L18.9183 12.9575ZM17.5843 13.228L17.2812 12.8304C16.876 13.1393 16.668 13.6417 16.7363 14.1466L17.2318 14.0796L17.7273 14.0126C17.7072 13.8641 17.7683 13.7165 17.8874 13.6257L17.5843 13.228ZM17.2318 14.0796L16.7363 14.1466C16.7701 14.3969 16.8961 14.6151 17.0312 14.8094C17.1691 15.0077 17.3637 15.245 17.5977 15.531L17.9847 15.2144L18.3717 14.8977C18.127 14.5987 17.9625 14.3971 17.8523 14.2385C17.7393 14.076 17.7282 14.0193 17.7273 14.0126L17.2318 14.0796ZM17.9847 15.2144L17.5977 15.531C17.7284 15.6907 17.8107 15.7917 17.8687 15.8731C17.9239 15.9504 17.9366 15.9827 17.9411 15.9965L18.4173 15.8442L18.8936 15.6919C18.8448 15.5396 18.7677 15.4114 18.683 15.2926C18.6012 15.1779 18.4939 15.0471 18.3717 14.8977L17.9847 15.2144ZM18.4173 15.8442L17.941 15.9964C17.9716 16.0921 17.9665 16.1963 17.9263 16.2891L18.3851 16.4878L18.8439 16.6865C18.98 16.3723 18.998 16.0189 18.8936 15.692L18.4173 15.8442ZM18.3851 16.4878L17.9263 16.289C17.9205 16.3024 17.9046 16.3333 17.842 16.4048C17.7763 16.48 17.6842 16.5724 17.5384 16.7182L17.8919 17.0718L18.2455 17.4253C18.382 17.2888 18.5019 17.1693 18.5947 17.0632C18.6908 16.9533 18.7803 16.8334 18.8439 16.6866L18.3851 16.4878ZM17.8919 17.0718L17.5384 16.7182L16.719 17.5376L17.0726 17.8911L17.4261 18.2447L18.2455 17.4253L17.8919 17.0718ZM17.0726 17.8911L16.719 17.5376C16.5731 17.6835 16.4808 17.7755 16.4056 17.8413C16.3341 17.9037 16.3033 17.9197 16.2899 17.9255L16.4886 18.3843L16.6873 18.8431C16.8342 18.7795 16.9541 18.69 17.064 18.5939C17.1701 18.5011 17.2896 18.3812 17.4261 18.2447L17.0726 17.8911ZM16.4886 18.3843L16.2899 17.9255C16.1972 17.9656 16.0929 17.9708 15.9971 17.9402L15.8451 18.4165L15.693 18.8928C16.0196 18.9971 16.3731 18.9792 16.6873 18.8431L16.4886 18.3843ZM15.8451 18.4165L15.9974 17.9403C15.9835 17.9358 15.9512 17.923 15.8738 17.8679C15.7925 17.8099 15.6914 17.7275 15.5318 17.5969L15.2152 17.9839L14.8985 18.3709C15.0479 18.493 15.1786 18.6004 15.2934 18.6822C15.4122 18.7669 15.5403 18.844 15.6927 18.8927L15.8451 18.4165ZM15.2152 17.9839L15.5318 17.5969C15.2457 17.3628 15.0083 17.1679 14.8099 17.0299C14.6155 16.8946 14.3969 16.7682 14.1461 16.7344L14.0794 17.23L14.0128 17.7255C14.0193 17.7264 14.0759 17.7374 14.2387 17.8507C14.3974 17.9611 14.5992 18.1259 14.8985 18.3709L15.2152 17.9839ZM14.0794 17.23L14.146 16.7344C13.6415 16.6667 13.1399 16.8751 12.8315 17.2791L13.2288 17.5825L13.6262 17.886C13.7173 17.7668 13.865 17.7057 14.0129 17.7255L14.0794 17.23ZM13.2288 17.5825L12.8314 17.2792C12.6779 17.4802 12.6126 17.7239 12.5706 17.9571C12.5278 18.1951 12.4976 18.5007 12.4608 18.8687L12.9583 18.9185L13.4559 18.9682C13.4943 18.5834 13.5206 18.3243 13.5548 18.1342C13.5899 17.9392 13.6222 17.8913 13.6263 17.8859L13.2288 17.5825ZM12.9583 18.9185L12.4608 18.8687C12.4403 19.0742 12.4271 19.204 12.4105 19.3026C12.3948 19.3964 12.381 19.4283 12.3743 19.4412L12.8187 19.6704L13.263 19.8997C13.3365 19.7573 13.3726 19.612 13.3968 19.468C13.4201 19.3289 13.4366 19.1603 13.4559 18.9682L12.9583 18.9185ZM12.8187 19.6704L12.3744 19.4411C12.3285 19.5299 12.2514 19.5998 12.1571 19.6372L12.3411 20.1021L12.5252 20.5669C12.8429 20.4412 13.1056 20.2047 13.263 19.8997L12.8187 19.6704ZM12.3411 20.1021L12.1572 19.6371C12.1436 19.6425 12.1103 19.6531 12.0153 19.6595C11.9154 19.6662 11.7848 19.6665 11.5784 19.6665V20.1665V20.6665C11.7718 20.6665 11.9413 20.6667 12.0822 20.6573C12.2281 20.6475 12.3763 20.6259 12.5251 20.567L12.3411 20.1021ZM11.5784 20.1665V19.6665H10.4202V20.1665V20.6665H11.5784V20.1665ZM10.4202 20.1665V19.6665C10.214 19.6665 10.0836 19.6662 9.98405 19.6595C9.88941 19.6531 9.85618 19.6425 9.8424 19.6371L9.65853 20.1021L9.47466 20.567C9.62329 20.6258 9.77118 20.6474 9.91693 20.6572C10.0577 20.6667 10.227 20.6665 10.4202 20.6665V20.1665ZM9.65853 20.1021L9.84248 19.6371C9.74827 19.5998 9.67123 19.5301 9.62528 19.4411L9.18099 19.6704L8.73669 19.8998C8.89407 20.2046 9.15663 20.4412 9.47458 20.567L9.65853 20.1021ZM9.18099 19.6704L9.62529 19.4411C9.6187 19.4283 9.60492 19.3966 9.58921 19.3028C9.57267 19.204 9.55946 19.0742 9.53885 18.8686L9.04134 18.9185L8.54383 18.9683C8.56309 19.1604 8.57966 19.329 8.60295 19.468C8.62706 19.6119 8.66317 19.7573 8.73669 19.8997L9.18099 19.6704ZM9.04134 18.9185L9.53885 18.8686C9.50198 18.5008 9.4717 18.1955 9.42885 17.9576C9.38688 17.7247 9.32158 17.4812 9.16846 17.2804L8.77083 17.5835L8.3732 17.8866C8.37732 17.892 8.40957 17.94 8.44469 18.1349C8.47894 18.325 8.5053 18.5839 8.54383 18.9683L9.04134 18.9185ZM8.77083 17.5835L9.16835 17.2802C8.85954 16.8755 8.35703 16.6674 7.85241 16.7354L7.91927 17.231L7.98613 17.7265C8.13449 17.7064 8.28246 17.7677 8.37332 17.8868L8.77083 17.5835ZM7.91927 17.231L7.85225 16.7355C7.60178 16.7693 7.38358 16.8956 7.18953 17.0307C6.99144 17.1686 6.75443 17.3632 6.46881 17.597L6.78548 17.9839L7.10215 18.3708C7.40105 18.1262 7.60243 17.9617 7.76086 17.8514C7.92333 17.7383 7.97977 17.7273 7.98629 17.7264L7.91927 17.231ZM6.78548 17.9839L6.46881 17.597C6.30926 17.7275 6.20818 17.8099 6.12683 17.8679C6.04946 17.923 6.01712 17.9358 6.00321 17.9403L6.1556 18.4165L6.30798 18.8927C6.46025 18.844 6.5884 18.7669 6.70721 18.6822C6.82202 18.6004 6.95281 18.4931 7.10215 18.3708L6.78548 17.9839ZM6.1556 18.4165L6.00331 17.9403C5.90729 17.971 5.80268 17.9658 5.71002 17.9256L5.51107 18.3843L5.31212 18.843C5.6268 18.9795 5.98101 18.9973 6.30788 18.8927L6.1556 18.4165ZM5.51107 18.3843L5.71024 17.9257C5.69716 17.92 5.6665 17.9042 5.595 17.8415C5.51977 17.7755 5.42755 17.6835 5.28161 17.5376L4.92806 17.8911L4.57451 18.2447C4.71066 18.3808 4.82997 18.5007 4.93573 18.5934C5.04522 18.6894 5.16502 18.7791 5.3119 18.8429L5.51107 18.3843ZM4.92806 17.8911L5.28161 17.5376L4.46228 16.7182L4.10872 17.0718L3.75517 17.4253L4.57451 18.2447L4.92806 17.8911ZM4.10872 17.0718L4.46228 16.7182C4.31636 16.5723 4.22436 16.4799 4.15859 16.4047C4.0961 16.3333 4.08016 16.3024 4.07433 16.289L3.61556 16.4878L3.15678 16.6866C3.22039 16.8334 3.3098 16.9533 3.40592 17.0631C3.49876 17.1693 3.61862 17.2888 3.75517 17.4253L4.10872 17.0718ZM3.61556 16.4878L4.07435 16.289C4.03422 16.1964 4.02903 16.0922 4.05964 15.9963L3.58333 15.8442L3.10702 15.6922C3.00274 16.0188 3.02059 16.3723 3.15677 16.6866L3.61556 16.4878ZM3.58333 15.8442L4.05958 15.9965C4.06399 15.9827 4.07673 15.9505 4.1319 15.8731C4.18994 15.7917 4.27231 15.6907 4.40298 15.5309L4.01595 15.2144L3.62891 14.8978C3.50679 15.0471 3.39943 15.1779 3.31765 15.2926C3.233 15.4113 3.15583 15.5395 3.10709 15.692L3.58333 15.8442ZM4.01595 15.2144L4.40298 15.5309C4.63684 15.245 4.83141 15.0077 4.9693 14.8094C5.10437 14.6152 5.2305 14.397 5.26436 14.1466L4.76888 14.0796L4.27339 14.0126C4.27249 14.0193 4.26138 14.0759 4.14829 14.2385C4.03803 14.3971 3.87352 14.5987 3.62891 14.8978L4.01595 15.2144ZM4.76888 14.0796L5.2644 14.1464C5.3325 13.6409 5.12307 13.1386 4.71837 12.8303L4.41536 13.228L4.11236 13.6258C4.23204 13.7169 4.29328 13.865 4.27336 14.0128L4.76888 14.0796ZM4.41536 13.228L4.71831 12.8303C4.51774 12.6775 4.27494 12.612 4.04182 12.5699C3.804 12.527 3.49886 12.4967 3.131 12.46L3.08138 12.9575L3.03175 13.4551C3.41581 13.4934 3.67447 13.5197 3.86406 13.554C4.05836 13.5891 4.1066 13.6214 4.11241 13.6258L4.41536 13.228ZM3.08138 12.9575L3.131 12.46C2.92549 12.4395 2.79589 12.4264 2.69716 12.41C2.60336 12.3944 2.57179 12.3807 2.55917 12.3743L2.3304 12.8188L2.10163 13.2634C2.24413 13.3368 2.3895 13.3726 2.53314 13.3965C2.67184 13.4196 2.84018 13.4359 3.03175 13.4551L3.08138 12.9575ZM2.3304 12.8188L2.55939 12.3744C2.47026 12.3284 2.40013 12.2511 2.3628 12.1566L1.89779 12.3403L1.43277 12.5241C1.55862 12.8426 1.79581 13.1059 2.10142 13.2633L2.3304 12.8188ZM1.89779 12.3403L2.36283 12.1567C2.34233 12.1047 2.33333 12.0233 2.33333 11.5796H1.83333H1.33333C1.33333 11.9339 1.32508 12.2514 1.43274 12.524L1.89779 12.3403ZM1.83333 11.5796H2.33333V10.4204H1.83333H1.33333V11.5796H1.83333ZM1.83333 10.4204H2.33333C2.33333 10.2141 2.33364 10.0838 2.34033 9.98419C2.34669 9.88958 2.35728 9.8564 2.36272 9.84263L1.89779 9.65869L1.43285 9.47475C1.37403 9.62343 1.35239 9.77134 1.34259 9.91711C1.33312 10.0579 1.33333 10.2272 1.33333 10.4204H1.83333ZM1.89779 9.65869L2.36272 9.84264C2.39996 9.7485 2.46979 9.6714 2.55883 9.62542L2.32943 9.18115L2.10003 8.73688C1.79528 8.89424 1.55865 9.15679 1.43285 9.47474L1.89779 9.65869ZM2.32943 9.18115L2.55876 9.62546C2.57155 9.61885 2.60327 9.60508 2.69708 9.58936C2.79581 9.57282 2.9256 9.55963 3.13126 9.53901L3.08138 9.0415L3.0315 8.544C2.83945 8.56325 2.67088 8.57982 2.53187 8.6031C2.38794 8.62721 2.24254 8.66332 2.10009 8.73685L2.32943 9.18115ZM3.08138 9.0415L3.13126 9.53901C3.49897 9.50214 3.80431 9.47188 4.04213 9.42904C4.27514 9.38706 4.51847 9.32176 4.71934 9.16873L4.41634 8.771L4.11334 8.37327C4.10774 8.37753 4.05965 8.40978 3.86483 8.44488C3.67481 8.47911 3.41591 8.50546 3.0315 8.544L3.08138 9.0415ZM4.41634 8.771L4.7197 9.16845C5.12425 8.85968 5.33223 8.357 5.26442 7.85278L4.76888 7.91943L4.27334 7.98608C4.2933 8.13449 4.23188 8.28279 4.11298 8.37354L4.41634 8.771ZM4.76888 7.91943L5.26437 7.8524C5.23049 7.60204 5.10445 7.38381 4.96933 7.18949C4.83142 6.99115 4.63684 6.75396 4.40293 6.46806L4.01595 6.78467L3.62896 7.10128C3.87359 7.40028 4.03808 7.60186 4.1483 7.76037C4.26131 7.9229 4.27246 7.97961 4.27339 7.98646L4.76888 7.91943ZM4.01595 6.78467L4.40293 6.46806C4.27229 6.30837 4.18993 6.20734 4.13192 6.12596C4.07678 6.04862 4.06401 6.01635 4.05957 6.00248L3.58333 6.15479L3.1071 6.3071C3.15583 6.45949 3.23296 6.58765 3.31764 6.70644C3.39944 6.82118 3.5068 6.95196 3.62896 7.10128L4.01595 6.78467ZM3.58333 6.15479L4.05963 6.00266C4.02904 5.9069 4.03421 5.80268 4.07438 5.70994L3.61556 5.51123L3.15674 5.31252C3.02066 5.62672 3.00269 5.98022 3.10704 6.30691L3.58333 6.15479ZM3.61556 5.51123L4.07435 5.71C4.08016 5.69659 4.09609 5.66572 4.1586 5.59426C4.22437 5.51907 4.31637 5.4267 4.46228 5.2808L4.10872 4.92725L3.75517 4.57369C3.61865 4.71021 3.49878 4.82972 3.40593 4.93586C3.30982 5.04573 3.22038 5.16564 3.15677 5.31246L3.61556 5.51123ZM4.10872 4.92725L4.46228 5.2808L5.28161 4.46146L4.92806 4.10791L4.57451 3.75436L3.75517 4.57369L4.10872 4.92725ZM4.92806 4.10791L5.28161 4.46146C5.42746 4.31562 5.51986 4.2236 5.59507 4.15782C5.66656 4.09529 5.69748 4.07932 5.71091 4.0735L5.51204 3.61475L5.31318 3.156C5.16645 3.2196 5.04656 3.30903 4.9367 3.40513C4.83054 3.49798 4.71103 3.61783 4.57451 3.75436L4.92806 4.10791ZM5.51204 3.61475L5.71076 4.07356C5.80362 4.03335 5.9077 4.0282 6.00337 4.05878L6.1556 3.58252L6.30782 3.10626C5.98095 3.00178 5.62752 3.01985 5.31333 3.15593L5.51204 3.61475ZM6.1556 3.58252L6.00333 4.05877C6.01717 4.06319 6.04941 4.07595 6.12674 4.13107C6.20811 4.18908 6.30915 4.27145 6.46887 4.40212L6.78548 4.01514L7.10209 3.62815C6.95275 3.50597 6.82196 3.3986 6.70722 3.3168C6.58844 3.23212 6.46027 3.15499 6.30786 3.10627L6.1556 3.58252ZM6.78548 4.01514L6.46887 4.40212C6.75477 4.63603 6.992 4.83063 7.19036 4.96855C7.38464 5.10364 7.60295 5.22977 7.85336 5.26357L7.92025 4.76807L7.98714 4.27256C7.98048 4.27166 7.92385 4.26059 7.76124 4.14752C7.6027 4.03728 7.40108 3.87277 7.10209 3.62815L6.78548 4.01514ZM7.92025 4.76807L7.8536 5.2636C8.35778 5.33141 8.86051 5.12381 9.16941 4.7187L8.77181 4.41553L8.37421 4.11236C8.28363 4.23114 8.13564 4.29253 7.98689 4.27253L7.92025 4.76807ZM8.77181 4.41553L9.16948 4.71861C9.32271 4.51755 9.38776 4.27395 9.42949 4.04124C9.47209 3.80367 9.50213 3.4985 9.53886 3.13131L9.04134 3.08154L8.54382 3.03178C8.50539 3.41604 8.47926 3.67473 8.44519 3.86473C8.41025 4.05958 8.37811 4.10724 8.37414 4.11245L8.77181 4.41553ZM9.04134 3.08154L9.53886 3.13131C9.55935 2.92643 9.57264 2.79674 9.5892 2.69829C9.60495 2.60464 9.61879 2.57253 9.62556 2.55938L9.18099 2.33057L8.73642 2.10175C8.66338 2.24365 8.62725 2.38858 8.60305 2.53242C8.57966 2.67147 8.56303 2.83974 8.54382 3.03178L9.04134 3.08154ZM9.18099 2.33057L9.62543 2.55963C9.67143 2.47038 9.74886 2.40025 9.84319 2.36299L9.6595 1.89795L9.47582 1.43291C9.15718 1.55877 8.89396 1.79607 8.73654 2.10151L9.18099 2.33057ZM9.6595 1.89795L9.84303 2.36305C9.89503 2.34253 9.97668 2.3335 10.4202 2.3335V1.8335V1.3335C10.0658 1.3335 9.74846 1.32533 9.47598 1.43285L9.6595 1.89795ZM10.4202 1.8335V2.3335H11.5794V1.8335V1.3335H10.4202V1.8335ZM11.0003 7.3335V6.8335C8.69914 6.8335 6.83333 8.6993 6.83333 11.0005H7.33333H7.83333C7.83333 9.25159 9.25142 7.8335 11.0003 7.8335V7.3335ZM7.33333 11.0005L6.83333 11.0006C6.83363 13.3016 8.69941 15.1665 11.0003 15.1665V14.6665V14.1665C9.25148 14.1665 7.83356 12.749 7.83333 11.0004L7.33333 11.0005ZM11.0003 14.6665L11.0004 15.1665C13.3012 15.1663 15.166 13.3013 15.1663 11.0006L14.6663 11.0005L14.1663 11.0004C14.1661 12.7491 12.7489 14.1664 11.0003 14.1665L11.0003 14.6665ZM14.6663 11.0005H15.1663C15.1663 8.69954 13.3015 6.83369 11.0004 6.8335L11.0003 7.3335L11.0003 7.8335C12.7489 7.83365 14.1663 9.25156 14.1663 11.0005H14.6663Z" fill="#222222"/>
</svg>
