<svg width="24" height="24" viewBox="0 0 24 24" fill="none" xmlns="http://www.w3.org/2000/svg">
<path fill-rule="evenodd" clip-rule="evenodd" d="M24 1.83051C24 0.819547 23.1805 0 22.1695 0C21.1585 0 20.339 0.819547 20.339 1.83051V22.1695C20.339 23.1805 21.1585 24 22.1695 24C23.1805 24 24 23.1805 24 22.1695V1.83051ZM10.3725 12.6098C10.3725 11.5988 9.55294 10.7793 8.54198 10.7793C7.53101 10.7793 6.71147 11.5988 6.71147 12.6098V22.1691C6.71147 23.1801 7.53101 23.9996 8.54198 23.9996C9.55294 23.9996 10.3725 23.1801 10.3725 22.1691V12.6098ZM1.83051 16.2712C2.84147 16.2712 3.66102 17.0907 3.66102 18.1017V22.1695C3.66102 23.1805 2.84147 24 1.83051 24C0.819547 24 0 23.1805 0 22.1695V18.1017C0 17.0907 0.819547 16.2712 1.83051 16.2712ZM17.288 7.32194C17.288 6.31097 16.4685 5.49143 15.4575 5.49143C14.4466 5.49143 13.627 6.31097 13.627 7.32194V22.1694C13.627 23.1804 14.4466 23.9999 15.4575 23.9999C16.4685 23.9999 17.288 23.1804 17.288 22.1694V7.32194Z" fill="#222227"/>
</svg>
