<svg width="92" height="20" viewBox="0 0 92 20" fill="none" xmlns="http://www.w3.org/2000/svg">
<path d="M6.61835 20C5.94814 20 5.26862 19.8998 4.57979 19.6995C3.89096 19.4991 3.23936 19.1985 2.625 18.7978C2.02926 18.3789 1.49867 17.8506 1.03324 17.2131C0.567819 16.5756 0.223404 15.8197 0 14.9454L2.79255 13.8525C3.03457 14.8179 3.47207 15.6102 4.10505 16.2295C4.75665 16.8306 5.58511 17.1311 6.59043 17.1311C7.09309 17.1311 7.56782 17.0492 8.01463 16.8852C8.46144 16.7031 8.84309 16.4663 9.15958 16.1749C9.47606 15.8652 9.72739 15.5009 9.91356 15.082C10.0997 14.663 10.1928 14.1985 10.1928 13.6885C10.1928 13.1785 10.0997 12.714 9.91356 12.2951C9.74601 11.8579 9.50399 11.4845 9.1875 11.1749C8.87101 10.8652 8.48936 10.6284 8.04255 10.4645C7.59574 10.2823 7.1117 10.1913 6.59043 10.1913C5.97606 10.1913 5.41755 10.3279 4.91489 10.6011C4.41223 10.8561 3.99335 11.1931 3.65824 11.612L0.586436 10.2732L1.73138 0.874317H12.1476V3.63388H4.32846L3.63032 8.49727L3.79787 8.55191C4.20745 8.24226 4.68218 7.97814 5.22207 7.75956C5.76197 7.54098 6.42287 7.43169 7.20479 7.43169C8.00532 7.43169 8.76862 7.58652 9.49468 7.89617C10.2394 8.18761 10.891 8.60656 11.4495 9.153C12.008 9.69945 12.4548 10.3552 12.7899 11.1202C13.125 11.8852 13.2926 12.7322 13.2926 13.6612C13.2926 14.5719 13.125 15.4189 12.7899 16.2022C12.4548 16.9672 11.9894 17.6321 11.3936 18.1967C10.7979 18.7614 10.0904 19.2077 9.27128 19.5355C8.47075 19.8452 7.58644 20 6.61835 20Z" fill="#222227"/>
<path d="M18.1363 19.7268C17.5406 19.7268 17.0286 19.5264 16.6004 19.1257C16.1908 18.7067 15.9861 18.2058 15.9861 17.6229C15.9861 17.0401 16.1908 16.5392 16.6004 16.1202C17.0286 15.7013 17.5406 15.4918 18.1363 15.4918C18.7321 15.4918 19.244 15.7013 19.6722 16.1202C20.1004 16.5392 20.3145 17.0401 20.3145 17.6229C20.3145 18.2058 20.1004 18.7067 19.6722 19.1257C19.244 19.5264 18.7321 19.7268 18.1363 19.7268ZM18.1363 10.1366C17.5406 10.1366 17.0286 9.93625 16.6004 9.53552C16.1908 9.11658 15.9861 8.61567 15.9861 8.03279C15.9861 7.44991 16.1908 6.95811 16.6004 6.55738C17.0286 6.13843 17.5406 5.92896 18.1363 5.92896C18.7321 5.92896 19.244 6.13843 19.6722 6.55738C20.1004 6.95811 20.3145 7.44991 20.3145 8.03279C20.3145 8.61567 20.1004 9.11658 19.6722 9.53552C19.244 9.93625 18.7321 10.1366 18.1363 10.1366Z" fill="#222227"/>
<path d="M27.4907 19.5628V4.53552L23.9442 6.03825L22.7713 3.44262L28.3843 0.874317H30.5905V19.5628H27.4907Z" fill="#222227"/>
<path d="M40.4844 20C39.8142 20 39.144 19.9089 38.4737 19.7268C37.8035 19.5446 37.1706 19.2623 36.5748 18.8798C35.9977 18.4791 35.4764 17.9781 35.011 17.3771C34.5456 16.776 34.1918 16.0565 33.9498 15.2186L36.8541 14.0437C37.1147 15.0273 37.5615 15.7832 38.1945 16.3115C38.8275 16.8397 39.5908 17.1038 40.4844 17.1038C40.9312 17.1038 41.3594 17.031 41.769 16.8852C42.1972 16.7395 42.5695 16.5392 42.886 16.2842C43.2025 16.0109 43.4538 15.7013 43.64 15.3552C43.8261 14.9909 43.9192 14.5902 43.9192 14.153C43.9192 13.7158 43.8168 13.3151 43.612 12.9508C43.4259 12.5865 43.1652 12.2769 42.8301 12.0219C42.495 11.7668 42.0948 11.5665 41.6293 11.4208C41.1825 11.275 40.6985 11.2022 40.1772 11.2022H38.5296V8.38798H40.0097C40.4565 8.38798 40.866 8.33333 41.2384 8.22404C41.6293 8.09654 41.9737 7.9235 42.2716 7.70492C42.5695 7.48634 42.8022 7.21311 42.9698 6.88525C43.1373 6.53916 43.2211 6.14754 43.2211 5.71038C43.2211 4.96357 42.9418 4.38069 42.3833 3.96175C41.8434 3.52459 41.1546 3.30601 40.3168 3.30601C39.8514 3.30601 39.4418 3.36976 39.0881 3.49727C38.753 3.62477 38.4644 3.79781 38.2224 4.01639C37.9804 4.23497 37.7756 4.48087 37.6081 4.7541C37.4591 5.00911 37.3381 5.27322 37.245 5.54645L34.3966 4.37158C34.5456 3.93443 34.7783 3.48816 35.0948 3.03279C35.4112 2.5592 35.8115 2.13115 36.2956 1.74863C36.7796 1.36612 37.3474 1.05647 37.999 0.819671C38.6692 0.564662 39.4418 0.437157 40.3168 0.437157C41.2104 0.437157 42.0296 0.564662 42.7743 0.819671C43.519 1.07468 44.1612 1.42987 44.7011 1.88525C45.241 2.34062 45.6599 2.87796 45.9578 3.49727C46.2557 4.11658 46.4046 4.79053 46.4046 5.51913C46.4046 6.04736 46.3301 6.53005 46.1812 6.96721C46.0509 7.40437 45.8647 7.79599 45.6227 8.14208C45.3807 8.46994 45.1107 8.75228 44.8128 8.98907C44.515 9.22587 44.2078 9.42623 43.8913 9.59016V9.7541C44.3195 9.93625 44.7291 10.173 45.12 10.4645C45.511 10.7377 45.8461 11.0656 46.1253 11.4481C46.4232 11.8306 46.6559 12.2678 46.8235 12.7596C46.991 13.2332 47.0748 13.7523 47.0748 14.3169C47.0748 15.1366 46.9073 15.9016 46.5722 16.612C46.237 17.3042 45.7716 17.9053 45.1759 18.4153C44.5987 18.9071 43.9099 19.2896 43.1094 19.5628C42.3089 19.8543 41.4339 20 40.4844 20Z" fill="#222227"/>
<path d="M56.3356 19.5628V0H63.2611C64.1548 0 64.9925 0.145719 65.7744 0.437157C66.575 0.728597 67.2731 1.13843 67.8689 1.66667C68.4646 2.1949 68.93 2.83242 69.2651 3.57923C69.6189 4.30783 69.7957 5.1184 69.7957 6.01093C69.7957 6.88525 69.6189 7.69581 69.2651 8.44262C68.93 9.17122 68.4646 9.79964 67.8689 10.3279C67.2731 10.8561 66.575 11.2659 65.7744 11.5574C64.9925 11.8488 64.1548 11.9945 63.2611 11.9945H59.4912V19.5628H56.3356ZM63.3449 9.04372C63.8662 9.04372 64.3316 8.96175 64.7412 8.79781C65.1508 8.61566 65.4952 8.37887 65.7744 8.08743C66.0537 7.79599 66.2678 7.46812 66.4167 7.10383C66.5657 6.73953 66.6401 6.37523 66.6401 6.01093C66.6401 5.62842 66.5657 5.25501 66.4167 4.89071C66.2678 4.52641 66.0537 4.20765 65.7744 3.93443C65.4952 3.64299 65.1508 3.40619 64.7412 3.22404C64.3316 3.04189 63.8662 2.95082 63.3449 2.95082H59.4912V9.04372H63.3449Z" fill="#222227"/>
<path d="M72.4801 0H75.6356L82.1702 11.1202H82.3378L88.8723 0H92V19.5628H88.8723V8.93443L89.0399 5.65574H88.8723L83.1755 15.4098H81.3045L75.6356 5.65574H75.4681L75.6356 8.93443V19.5628H72.4801V0Z" fill="#222227"/>
</svg>
