<svg width="72" height="72" viewBox="0 0 72 72" fill="none" xmlns="http://www.w3.org/2000/svg">
<path d="M9 47.25V24.75C9 23.1587 9.63214 21.6326 10.7574 20.5074C11.8826 19.3821 13.4087 18.75 15 18.75H40.5C42.0913 18.75 43.6174 19.3821 44.7426 20.5074C45.8679 21.6326 46.5 23.1587 46.5 24.75V47.25C46.5 48.8413 45.8679 50.3674 44.7426 51.4926C43.6174 52.6179 42.0913 53.25 40.5 53.25H15C13.4087 53.25 11.8826 52.6179 10.7574 51.4926C9.63214 50.3674 9 48.8413 9 47.25ZM60.504 20.973L48.504 31.662C48.3458 31.8024 48.2192 31.9747 48.1323 32.1676C48.0455 32.3604 48.0004 32.5695 48 32.781V38.115C48.0004 38.3265 48.0455 38.5356 48.1323 38.7284C48.2192 38.9213 48.3458 39.0936 48.504 39.234L60.504 49.923C60.7202 50.115 60.9873 50.2404 61.2731 50.2841C61.5589 50.3279 61.8513 50.2881 62.115 50.1695C62.3787 50.051 62.6026 49.8587 62.7596 49.6159C62.9166 49.3731 63.0001 49.0901 63 48.801V22.095C63.0001 21.8059 62.9166 21.5229 62.7596 21.2801C62.6026 21.0373 62.3787 20.845 62.115 20.7265C61.8513 20.6079 61.5589 20.5681 61.2731 20.6119C60.9873 20.6556 60.7202 20.781 60.504 20.973Z" stroke="#999898" stroke-width="2.25" stroke-linecap="round" stroke-linejoin="round"/>
</svg>
