<svg width="96" height="96" viewBox="0 0 96 96" fill="none" xmlns="http://www.w3.org/2000/svg">
<path d="M72 34C75.3137 34 78 31.3137 78 28C78 24.6863 75.3137 22 72 22C68.6863 22 66 24.6863 66 28C66 31.3137 68.6863 34 72 34Z" stroke="#999898" stroke-width="2" stroke-linecap="round"/>
<path d="M20.148 70.0001H63.856C64.4414 69.9999 65.0155 69.8392 65.5159 69.5353C66.0163 69.2315 66.4237 68.7963 66.6939 68.277C66.9641 67.7576 67.0866 67.1742 67.0482 66.59C67.0098 66.0059 66.8119 65.4435 66.476 64.9641L44.62 33.7441C44.3248 33.3232 43.9326 32.9796 43.4766 32.7424C43.0205 32.5052 42.514 32.3813 42 32.3813C41.4859 32.3813 40.9794 32.5052 40.5234 32.7424C40.0673 32.9796 39.6751 33.3232 39.38 33.7441L17.52 64.9641C17.1839 65.4438 16.986 66.0066 16.9477 66.591C16.9095 67.1755 17.0324 67.7593 17.303 68.2787C17.5737 68.7982 17.9817 69.2334 18.4827 69.5369C18.9836 69.8404 19.5583 70.0006 20.144 70.0001H20.148Z" stroke="#999898" stroke-width="2" stroke-linecap="round"/>
<path d="M42 70H76.228C76.7991 69.9997 77.3597 69.8466 77.8516 69.5566C78.3436 69.2665 78.7489 68.8501 79.0257 68.3505C79.3024 67.851 79.4404 67.2865 79.4253 66.7156C79.4102 66.1447 79.2427 65.5883 78.94 65.104L64.712 42.344C64.4242 41.8844 64.0243 41.5056 63.5499 41.2429C63.0756 40.9803 62.5422 40.8425 62 40.8425C61.4578 40.8425 60.9244 40.9803 60.4501 41.2429C59.9757 41.5056 59.5758 41.8844 59.288 42.344L55.436 48.5" stroke="#999898" stroke-width="2" stroke-linecap="round"/>
</svg>
