<svg width="31" height="23" viewBox="0 0 31 23" fill="none" xmlns="http://www.w3.org/2000/svg">
<path fill-rule="evenodd" clip-rule="evenodd" d="M8.59387 4.5894C10.782 3.68038 13.1285 3.21395 15.4979 3.21703L15.5 3.21704C20.4838 3.21704 24.9914 5.24043 28.2517 8.51453C28.8785 9.14402 29.897 9.14618 30.5265 8.51935C31.156 7.89252 31.1581 6.87407 30.5313 6.24458C26.6922 2.38919 21.3743 0.000300766 15.501 1.66176e-05L15.5021 1.79358e-05L15.5 1.60853V1.64977e-05L15.501 1.66176e-05C12.707 -0.00348556 9.93993 0.546614 7.35967 1.61855C4.77909 2.69062 2.43651 4.2634 0.467273 6.24603C-0.158756 6.87632 -0.155304 7.89476 0.474983 8.52079C1.10527 9.14682 2.12372 9.14337 2.74975 8.51308C4.41948 6.83199 6.40577 5.49842 8.59387 4.5894ZM10.8013 10.2065C12.2859 9.57271 13.8838 9.24694 15.498 9.24894H15.502C17.1162 9.24694 18.7141 9.57271 20.1987 10.2065C21.6833 10.8403 23.0237 11.769 24.1388 12.9362C24.7524 13.5785 25.7706 13.6018 26.413 12.9881C27.0553 12.3745 27.0786 11.3563 26.4649 10.714C25.049 9.23185 23.3469 8.05266 21.4618 7.24785C19.5773 6.44331 17.5491 6.02965 15.5 6.03193L15.502 6.03193L15.5 7.64044L15.498 6.03193L15.5 6.03193C13.4509 6.02965 11.4227 6.44331 9.53821 7.24785C7.65308 8.05266 5.95098 9.23185 4.53508 10.714C3.92143 11.3563 3.94469 12.3745 4.58703 12.9881C5.22938 13.6018 6.24756 13.5785 6.86121 12.9362C7.97628 11.769 9.31673 10.8403 10.8013 10.2065ZM13.0507 15.8081C13.8195 15.4597 14.6541 15.2799 15.4982 15.2809L15.5 15.2809C17.2779 15.2809 18.8719 16.0616 19.9609 17.3028C20.5468 17.9706 21.5631 18.0369 22.2308 17.451C22.8986 16.8651 22.965 15.8489 22.3791 15.1811C20.7057 13.2738 18.2436 12.0641 15.5009 12.0638L15.5018 12.0638L15.5 13.6723V12.0638H15.5009C14.1979 12.0625 12.9096 12.3401 11.7227 12.878C10.5356 13.416 9.47741 14.2019 8.6193 15.1829C8.03443 15.8516 8.10234 16.8678 8.77099 17.4526C9.43965 18.0375 10.4558 17.9696 11.0407 17.301C11.5965 16.6656 12.2818 16.1566 13.0507 15.8081ZM17.6937 20.609C17.6937 21.7195 16.7935 22.6197 15.6831 22.6197C14.5726 22.6197 13.6724 21.7195 13.6724 20.609C13.6724 19.4986 14.5726 18.5984 15.6831 18.5984C16.7935 18.5984 17.6937 19.4986 17.6937 20.609Z" fill="#222227"/>
</svg>
