<svg width="21" height="21" viewBox="0 0 21 21" fill="none" xmlns="http://www.w3.org/2000/svg">
<path d="M2.625 8.62234C2.625 7.72635 3.35135 7 4.24734 7V7C4.86184 7 5.42359 6.65282 5.6984 6.10319L6.41667 4.66667C6.51288 4.47424 6.56099 4.37803 6.61554 4.29434C6.90016 3.85771 7.3646 3.57068 7.88242 3.51137C7.98166 3.5 8.08923 3.5 8.30437 3.5H12.6956C12.9108 3.5 13.0183 3.5 13.1176 3.51137C13.6354 3.57068 14.0998 3.85771 14.3845 4.29434C14.439 4.37803 14.4871 4.47424 14.5833 4.66667L15.3016 6.10319C15.5764 6.65281 16.1382 7 16.7527 7V7C17.6487 7 18.375 7.72635 18.375 8.62234V13C18.375 14.7542 18.375 15.6312 17.9727 16.2716C17.7628 16.6055 17.4805 16.8878 17.1466 17.0977C16.5062 17.5 15.6292 17.5 13.875 17.5H7.125C5.37083 17.5 4.49375 17.5 3.85342 17.0977C3.51951 16.8878 3.23716 16.6055 3.02735 16.2716C2.625 15.6312 2.625 14.7542 2.625 13V8.62234Z" stroke="black" stroke-width="0.875"/>
<circle cx="10.5" cy="11.375" r="3.0625" stroke="black" stroke-width="0.875"/>
</svg>
