<svg width="24" height="24" viewBox="0 0 24 24" fill="none" xmlns="http://www.w3.org/2000/svg">
<path d="M12.708 6.72899C12.7548 6.73385 12.8017 6.73871 12.8499 6.74371C13.2096 6.78849 13.4643 6.89394 13.7261 7.14693C13.9631 7.46832 14.1716 7.8063 14.3805 8.14628C14.5713 8.45644 14.7641 8.76528 14.9616 9.07124C15.0138 9.15216 15.0653 9.23353 15.1166 9.31499C15.5043 9.87891 16.4796 9.9678 17.1049 10.1455C17.2462 10.1857 17.3873 10.2265 17.5284 10.2675C17.5715 10.2795 17.6145 10.2916 17.6589 10.304C17.9303 10.3834 18.1754 10.4674 18.3581 10.6956C18.496 10.9766 18.5377 11.2236 18.45 11.5282C18.3594 11.7435 18.2358 11.8956 18.0266 12.0031C17.4752 12.2051 16.7208 11.9842 16.1618 11.8945C15.9958 11.868 15.8297 11.8426 15.6636 11.8174C15.5566 11.8006 15.4497 11.7837 15.3427 11.7667C15.2693 11.7556 15.2693 11.7556 15.1944 11.7443C14.7938 11.6786 14.3615 11.5938 14.094 11.265C14.0634 11.2276 14.0329 11.1902 14.0014 11.1517C13.8963 11.0074 13.8092 10.8629 13.728 10.704C13.5809 10.9654 13.5438 11.2656 13.482 11.556C13.4687 11.616 13.4554 11.676 13.4417 11.7379C13.338 12.178 13.338 12.178 13.344 12.624C13.4349 12.7309 13.5035 12.7957 13.614 12.876C13.6717 12.9212 13.7293 12.9664 13.7869 13.0117C13.8168 13.0347 13.8468 13.0577 13.8777 13.0814C14.0241 13.1959 14.1637 13.3181 14.304 13.44C14.4731 13.5857 14.6427 13.7307 14.8144 13.8733C14.8425 13.8968 14.8707 13.9203 14.8997 13.9445C14.9528 13.9887 15.006 14.0327 15.0594 14.0765C15.3934 14.3551 15.5594 14.6297 15.6181 15.0611C15.6303 15.2111 15.6387 15.3609 15.6456 15.5113C15.6486 15.5671 15.6516 15.6228 15.6547 15.6803C15.6641 15.8605 15.6726 16.0407 15.681 16.221C15.6855 16.3127 15.6855 16.3127 15.6901 16.4063C15.7264 17.1483 15.7581 17.8901 15.762 18.633C15.7624 18.666 15.7627 18.699 15.7631 18.733C15.764 18.8243 15.7636 18.9157 15.7631 19.0071C15.763 19.0565 15.7628 19.106 15.7626 19.1569C15.72 19.475 15.5478 19.6537 15.3109 19.8489C15.1166 19.9945 14.9452 20.0409 14.7002 20.0344C14.4306 19.9886 14.1915 19.8514 13.995 19.665C13.7727 19.2827 13.7477 18.9213 13.7296 18.4876C13.7249 18.3755 13.7194 18.2636 13.7137 18.1516C13.6998 17.8737 13.6871 17.5958 13.6745 17.3179C13.6637 17.0823 13.6525 16.8468 13.6405 16.6112C13.6351 16.5012 13.6305 16.3911 13.6259 16.2809C13.6225 16.2133 13.6191 16.1456 13.6157 16.078C13.613 16.0191 13.6104 15.9603 13.6076 15.8996C13.5822 15.7322 13.5407 15.639 13.44 15.504C13.3394 15.4321 13.2443 15.3717 13.137 15.312C13.0729 15.275 13.0089 15.238 12.9448 15.201C12.8918 15.1707 12.8918 15.1707 12.8377 15.1399C12.7053 15.0635 12.5739 14.9854 12.4427 14.907C12.3953 14.8787 12.3479 14.8504 12.299 14.8213C12.2046 14.765 12.1101 14.7086 12.0157 14.6522C11.9722 14.6264 11.9286 14.6006 11.8837 14.574C11.8448 14.5509 11.8059 14.5277 11.7659 14.5039C11.6602 14.4419 11.6602 14.4419 11.52 14.4C11.5124 14.4296 11.5048 14.4592 11.4969 14.4898C11.3925 14.8852 11.2661 15.2724 11.136 15.66C11.1241 15.6957 11.1121 15.7313 11.0998 15.7681C10.8674 16.4623 10.6302 17.1549 10.3919 17.8471C10.3525 17.9614 10.3132 18.0758 10.2739 18.1902C10.1642 18.5095 10.0534 18.8285 9.94075 19.1468C9.90585 19.2455 9.87119 19.3443 9.83675 19.4431C9.7885 19.581 9.73907 19.7184 9.68925 19.8557C9.66857 19.9156 9.66857 19.9156 9.64746 19.9768C9.52097 20.3181 9.32803 20.5926 9.012 20.781C8.60788 20.8955 8.25663 20.9233 7.872 20.736C7.61341 20.5751 7.48738 20.3501 7.392 20.064C7.35481 19.7243 7.47664 19.4337 7.587 19.116C7.60818 19.0538 7.62933 18.9916 7.65043 18.9293C7.79717 18.4984 7.9485 18.069 8.09919 17.6395C8.52877 16.4149 8.9198 15.209 9.19403 13.9393C9.2352 13.7522 9.28031 13.5666 9.32861 13.3812C9.5261 12.6219 9.67603 11.8574 9.81374 11.0854C9.83708 10.955 9.86076 10.8247 9.88445 10.6944C10.0177 9.98107 10.0177 9.98107 10.128 9.26399C10.0878 9.27272 10.0476 9.28144 10.0061 9.29043C9.85713 9.32271 9.7081 9.35491 9.55905 9.38704C9.49452 9.40097 9.42998 9.41494 9.36546 9.42895C9.27279 9.44905 9.18008 9.46902 9.08737 9.48899C9.03157 9.50106 8.97577 9.51312 8.91827 9.52555C8.784 9.55199 8.784 9.55199 8.688 9.55199C8.68264 9.58907 8.67727 9.62614 8.67175 9.66434C8.61192 10.0666 8.53956 10.4648 8.457 10.863C8.44571 10.9211 8.43442 10.9791 8.42278 11.039C8.33089 11.4801 8.21245 11.837 7.824 12.096C7.57398 12.2484 7.29048 12.2248 7.008 12.192C6.73577 12.091 6.54482 11.9005 6.384 11.664C6.1858 11.2045 6.35625 10.6524 6.44944 10.1811C6.46063 10.1239 6.47183 10.0667 6.48337 10.0078C6.50698 9.88787 6.53075 9.76794 6.55466 9.64805C6.59104 9.46481 6.62642 9.2814 6.66178 9.09796C6.68494 8.98098 6.70816 8.86401 6.73144 8.74705C6.74705 8.66515 6.74705 8.66515 6.76298 8.58159C6.84102 8.19794 6.93849 7.93424 7.25724 7.6839C7.56918 7.49727 7.98513 7.44656 8.33644 7.36855C8.38424 7.3578 8.43204 7.34705 8.48129 7.33597C8.63515 7.30144 8.78906 7.26718 8.943 7.23299C8.99544 7.22131 9.04787 7.20964 9.1019 7.19761C9.41364 7.12822 9.72547 7.05925 10.0374 6.99057C10.1625 6.96297 10.2876 6.9352 10.4126 6.90735C10.6026 6.8651 10.7927 6.8239 10.983 6.78299C11.0354 6.77131 11.0878 6.75963 11.1418 6.74759C11.6702 6.63646 12.1751 6.66211 12.708 6.72899ZM11.505 7.24068C11.4637 7.24977 11.4223 7.25886 11.3797 7.26822C11.3119 7.28345 11.3119 7.28345 11.2427 7.29899C11.1705 7.31497 11.1705 7.31497 11.0969 7.33127C10.9909 7.35476 10.8848 7.37835 10.7788 7.402C10.6019 7.44135 10.4248 7.48019 10.2478 7.51893C9.9607 7.58185 9.67381 7.64559 9.38707 7.7101C9.22216 7.74718 9.0572 7.78392 8.89206 7.81996C8.72878 7.85561 8.5657 7.89207 8.40273 7.9291C8.31218 7.94946 8.22146 7.96899 8.13073 7.9885C7.82573 8.05867 7.60189 8.11268 7.392 8.35199C7.33452 8.46449 7.33452 8.46449 7.31456 8.59124C7.29873 8.66702 7.29873 8.66702 7.28257 8.74434C7.27116 8.80494 7.25975 8.86555 7.248 8.92799C7.23251 9.00448 7.21692 9.08095 7.20124 9.1574C7.157 9.37521 7.11469 9.59335 7.07307 9.81168C7.04691 9.94844 7.0202 10.0851 6.99347 10.2217C6.97659 10.3097 6.95975 10.3977 6.94294 10.4857C6.93102 10.5462 6.93102 10.5462 6.91885 10.6079C6.83463 11.0219 6.83463 11.0219 6.90637 11.4268C7.01184 11.5439 7.09763 11.6136 7.245 11.67C7.4404 11.662 7.53033 11.5944 7.68 11.472C7.7701 11.3368 7.7951 11.2735 7.82503 11.1201C7.83336 11.0782 7.84169 11.0364 7.85028 10.9934C7.85893 10.9484 7.86758 10.9034 7.8765 10.857C7.89034 10.7875 7.89034 10.7875 7.90445 10.7166C7.93394 10.5684 7.96302 10.4202 7.992 10.272C8.03013 10.0769 8.06869 9.88193 8.1075 9.68699C8.11615 9.64199 8.12481 9.59699 8.13372 9.55062C8.14205 9.50881 8.15038 9.467 8.15897 9.42393C8.16614 9.38716 8.17331 9.3504 8.1807 9.31252C8.208 9.21599 8.208 9.21599 8.304 9.07199C8.388 9.03828 8.388 9.03828 8.49022 9.01599C8.52853 9.00735 8.56684 8.99871 8.60631 8.98981C8.64781 8.98111 8.68931 8.9724 8.73206 8.96343C8.77481 8.95404 8.81756 8.94466 8.86161 8.93499C8.95221 8.91523 9.04288 8.89576 9.13361 8.87656C9.27177 8.84725 9.40968 8.81697 9.54759 8.78652C9.63574 8.76743 9.72389 8.7484 9.81206 8.72943C9.85308 8.72043 9.89409 8.71143 9.93634 8.70216C10.1626 8.65476 10.3757 8.61713 10.608 8.63999C10.6898 8.6999 10.6898 8.6999 10.752 8.78399C10.7594 8.88 10.7594 8.88 10.7439 8.99201C10.7381 9.03481 10.7324 9.07761 10.7265 9.12171C10.7191 9.16867 10.7117 9.21562 10.704 9.26399C10.6963 9.31337 10.6886 9.36275 10.6806 9.41362C10.653 9.58255 10.6237 9.75112 10.5939 9.91968C10.5829 9.98284 10.5718 10.046 10.5607 10.1092C10.5375 10.2414 10.5141 10.3736 10.4906 10.5058C10.467 10.6386 10.4437 10.7714 10.4207 10.9043C10.2811 11.7086 10.1244 12.5049 9.92409 13.2967C9.88763 13.4415 9.85212 13.5865 9.81688 13.7316C9.43596 15.2977 8.98836 16.8241 8.45138 18.3433C8.43575 18.3876 8.42013 18.4319 8.40403 18.4775C8.32855 18.6912 8.25251 18.9047 8.1752 19.1178C8.14781 19.1943 8.12043 19.2708 8.09306 19.3474C8.08035 19.3818 8.06763 19.4162 8.05453 19.4516C7.98554 19.646 7.94676 19.8098 7.968 20.016C8.07124 20.1762 8.1218 20.2433 8.304 20.304C8.53791 20.3265 8.69429 20.3001 8.89702 20.1779C9.04127 20.0576 9.08623 19.902 9.144 19.7278C9.15768 19.6898 9.17136 19.6517 9.18545 19.6125C9.22872 19.4913 9.27036 19.3697 9.312 19.248C9.33932 19.171 9.36675 19.0941 9.39431 19.0172C9.48049 18.7757 9.5643 18.5334 9.648 18.291C9.67909 18.2014 9.71019 18.1117 9.74132 18.0221C9.80586 17.8362 9.87033 17.6502 9.93476 17.4643C10.0301 17.1893 10.1259 16.9145 10.2219 16.6397C10.2451 16.5734 10.2451 16.5734 10.2687 16.5057C10.3449 16.2876 10.4212 16.0695 10.4977 15.8515C10.6339 15.463 10.7681 15.0742 10.8954 14.6827C10.9276 14.585 10.9599 14.4872 10.9922 14.3895C11.0212 14.3006 11.049 14.2113 11.0769 14.122C11.0941 14.0701 11.1112 14.0181 11.1289 13.9646C11.1431 13.9197 11.1574 13.8748 11.1721 13.8285C11.232 13.728 11.232 13.728 11.3421 13.681C11.5089 13.6797 11.5899 13.726 11.733 13.8109C11.8086 13.8551 11.8086 13.8551 11.8858 13.9002C11.9393 13.9325 11.9929 13.9647 12.048 13.998C12.1036 14.0308 12.1592 14.0636 12.2148 14.0964C12.6204 14.3361 13.0219 14.5827 13.4202 14.8344C13.4782 14.8709 13.4782 14.8709 13.5373 14.9081C13.5708 14.9294 13.6044 14.9507 13.6389 14.9727C13.7337 15.0312 13.7337 15.0312 13.872 15.072C13.92 15.153 13.92 15.153 13.968 15.264C13.9917 15.3018 14.0154 15.3396 14.0398 15.3786C14.1434 15.6274 14.1484 15.8667 14.163 16.134C14.1667 16.1918 14.1704 16.2496 14.1742 16.3092C14.1933 16.6167 14.2096 16.9243 14.2258 17.2319C14.2298 17.3087 14.2339 17.3855 14.238 17.4623C14.2479 17.6491 14.2575 17.8359 14.2663 18.0228C14.2545 18.715 14.2545 18.715 14.4654 19.3339C14.6018 19.4348 14.7129 19.44 14.88 19.44C15.0256 19.358 15.1403 19.2554 15.216 19.104C15.2185 19.0291 15.2177 18.9541 15.2153 18.8792C15.2137 18.829 15.2121 18.7789 15.2105 18.7272C15.2084 18.6704 15.2062 18.6135 15.204 18.555C15.2017 18.4949 15.1995 18.4348 15.1971 18.3728C15.1914 18.2274 15.1854 18.082 15.1792 17.9366C15.1707 17.7321 15.1628 17.5275 15.1552 17.3229C15.1446 17.0376 15.133 16.7524 15.1205 16.4672C15.1134 16.3055 15.1067 16.1439 15.1009 15.9822C15.0941 15.7977 15.0858 15.6134 15.0772 15.429C15.0755 15.3731 15.0737 15.3172 15.0719 15.2596C15.0551 14.9371 15.0258 14.7647 14.784 14.544C14.7141 14.4826 14.642 14.4234 14.568 14.367C14.373 14.2152 14.183 14.0593 13.995 13.899C13.7976 13.731 13.599 13.5648 13.398 13.401C12.828 12.936 12.828 12.936 12.768 12.816C12.7357 12.3856 12.8385 11.9722 12.924 11.553C12.9395 11.4754 12.9551 11.3978 12.9705 11.3202C13.0009 11.168 13.0316 11.0158 13.0624 10.8637C13.098 10.6869 13.1322 10.5098 13.1657 10.3326C13.1742 10.2877 13.1828 10.2429 13.1916 10.1968C13.2068 10.1172 13.2217 10.0377 13.2363 9.95806C13.2852 9.70682 13.2852 9.70682 13.392 9.59999C13.5478 9.5908 13.5478 9.5908 13.728 9.64799C13.8483 9.77922 13.9317 9.92845 14.019 10.083C14.0664 10.1637 14.114 10.2442 14.1617 10.3247C14.185 10.3641 14.2084 10.4035 14.2324 10.4441C14.4873 10.8717 14.4873 10.8717 14.8983 11.1199C14.9618 11.1296 14.9618 11.1296 15.0265 11.1396C15.0748 11.1473 15.123 11.1549 15.1728 11.1629C15.2507 11.1743 15.2507 11.1743 15.3302 11.1861C15.3841 11.1944 15.4379 11.2027 15.4935 11.2113C15.6076 11.2288 15.7217 11.246 15.8359 11.2629C16.0093 11.2887 16.1825 11.3156 16.3557 11.3425C16.4669 11.3594 16.578 11.3763 16.6892 11.3931C16.7405 11.401 16.7917 11.4089 16.8445 11.4171C17.3253 11.4928 17.3253 11.4928 17.808 11.472C17.9312 11.2872 17.896 11.2039 17.856 10.992C17.4676 10.8571 17.0782 10.7329 16.6819 10.6232C16.643 10.6123 16.6042 10.6015 16.5642 10.5904C16.4044 10.5458 16.2445 10.5014 16.0843 10.4581C15.381 10.2674 14.9423 10.097 14.544 9.45599C14.5045 9.39483 14.5045 9.39483 14.4642 9.33243C14.3829 9.20616 14.3029 9.07916 14.223 8.95199C14.0029 8.60473 13.7824 8.2578 13.557 7.91399C13.5342 7.87851 13.5113 7.84302 13.4878 7.80646C13.2756 7.47925 13.2756 7.47925 12.9323 7.31613C12.7807 7.29273 12.6296 7.2754 12.477 7.25999C12.4247 7.25399 12.3725 7.24799 12.3187 7.2418C11.9108 7.19502 11.9108 7.19502 11.505 7.24068Z" fill="black"/>
<path d="M14.3366 2.8455C14.7196 3.12916 14.9856 3.56053 15.072 4.032C15.1192 4.67592 15.0204 5.21263 14.6179 5.73356C14.2253 6.12796 13.7139 6.32984 13.164 6.354C12.6137 6.34154 12.1644 6.12803 11.76 5.76C11.4204 5.39073 11.2332 4.91752 11.208 4.416C11.237 3.82169 11.4929 3.31891 11.916 2.913C12.1316 2.72984 12.3548 2.62628 12.624 2.544C12.6538 2.53478 12.6835 2.52556 12.7142 2.51606C13.2998 2.40067 13.8422 2.52933 14.3366 2.8455ZM12.192 3.456C11.9061 3.78491 11.7908 4.10383 11.814 4.536C11.8548 4.88277 11.9958 5.17299 12.24 5.424C12.5725 5.67429 12.9221 5.80789 13.344 5.76C13.7648 5.68013 14.101 5.50352 14.346 5.145C14.544 4.79243 14.5877 4.42516 14.496 4.032C14.3485 3.60723 14.0986 3.33959 13.707 3.126C13.1193 2.94042 12.6547 3.04282 12.192 3.456Z" fill="black"/>
</svg>
