<svg width="13" height="13" viewBox="0 0 13 13" fill="none" xmlns="http://www.w3.org/2000/svg">
<path d="M2.16666 4.33341L1.8131 3.97986L1.45955 4.33341L1.8131 4.68697L2.16666 4.33341ZM10.3333 5.41675C10.3333 5.69289 10.5572 5.91675 10.8333 5.91675C11.1095 5.91675 11.3333 5.69289 11.3333 5.41675L10.3333 5.41675ZM4.33332 2.16675L3.97977 1.81319L1.8131 3.97986L2.16666 4.33341L2.52021 4.68697L4.68688 2.5203L4.33332 2.16675ZM2.16666 4.33341L1.8131 4.68697L3.97977 6.85363L4.33332 6.50008L4.68688 6.14653L2.52021 3.97986L2.16666 4.33341ZM2.16666 4.33341L2.16666 4.83341L9.74999 4.83341L9.74999 4.33341L9.74999 3.83341L2.16666 3.83341L2.16666 4.33341ZM9.74999 4.33341L9.74999 4.83341C10.0722 4.83341 10.3333 5.09458 10.3333 5.41675L10.8333 5.41675L11.3333 5.41675C11.3333 4.5423 10.6244 3.83341 9.74999 3.83341L9.74999 4.33341Z" fill="white"/>
<path d="M10.8333 8.66667L11.1869 8.31311L11.5405 8.66667L11.1869 9.02022L10.8333 8.66667ZM2.70834 8.66667L2.70834 8.16667L2.70834 8.66667ZM1.12501 7.58333C1.12501 7.30719 1.34887 7.08333 1.62501 7.08333C1.90115 7.08333 2.12501 7.30719 2.12501 7.58333L1.12501 7.58333ZM8.66668 6.5L9.02023 6.14645L11.1869 8.31311L10.8333 8.66667L10.4798 9.02022L8.31312 6.85355L8.66668 6.5ZM10.8333 8.66667L11.1869 9.02022L9.02023 11.1869L8.66668 10.8333L8.31312 10.4798L10.4798 8.31311L10.8333 8.66667ZM10.8333 8.66667L10.8333 9.16667L2.70834 9.16667L2.70834 8.66667L2.70834 8.16667L10.8333 8.16667L10.8333 8.66667ZM2.70834 8.66667L2.70834 9.16667C1.83389 9.16667 1.12501 8.45778 1.12501 7.58333L1.62501 7.58333L2.12501 7.58333C2.12501 7.9055 2.38618 8.16667 2.70834 8.16667L2.70834 8.66667Z" fill="white"/>
</svg>
