<svg width="48" height="48" viewBox="0 0 48 48" fill="none" xmlns="http://www.w3.org/2000/svg">
<path d="M36 17C37.6569 17 39 15.6569 39 14C39 12.3431 37.6569 11 36 11C34.3431 11 33 12.3431 33 14C33 15.6569 34.3431 17 36 17Z" stroke="#999898" stroke-width="2" stroke-linecap="round"/>
<path d="M10.074 35H31.928C32.2207 35 32.5078 34.9196 32.758 34.7677C33.0081 34.6158 33.2119 34.3981 33.347 34.1385C33.482 33.8788 33.5433 33.5871 33.5241 33.295C33.5049 33.003 33.4059 32.7218 33.238 32.482L22.31 16.872C22.1624 16.6616 21.9663 16.4898 21.7383 16.3712C21.5103 16.2526 21.257 16.1907 21 16.1907C20.743 16.1907 20.4897 16.2526 20.2617 16.3712C20.0337 16.4898 19.8376 16.6616 19.69 16.872L8.76001 32.482C8.59198 32.7219 8.49301 33.0033 8.47388 33.2955C8.45475 33.5878 8.51619 33.8796 8.65152 34.1394C8.78685 34.3991 8.99087 34.6167 9.24134 34.7685C9.49182 34.9202 9.77915 35.0003 10.072 35H10.074Z" stroke="#999898" stroke-width="2" stroke-linecap="round"/>
<path d="M21 35H38.114C38.3995 34.9999 38.6798 34.9233 38.9258 34.7783C39.1718 34.6333 39.3745 34.4251 39.5128 34.1753C39.6512 33.9255 39.7202 33.6432 39.7126 33.3578C39.7051 33.0724 39.6213 32.7941 39.47 32.552L32.356 21.172C32.2121 20.9422 32.0122 20.7528 31.775 20.6215C31.5378 20.4902 31.2711 20.4213 31 20.4213C30.7289 20.4213 30.4622 20.4902 30.225 20.6215C29.9878 20.7528 29.7879 20.9422 29.644 21.172L27.718 24.25" stroke="#999898" stroke-width="2" stroke-linecap="round"/>
</svg>
